<mxfile host="app.diagrams.net" agent="Mozilla/5.0 (Windows NT 10.0; Win64; x64) AppleWebKit/537.36 (KHTML, like Gecko) Chrome/135.0.0.0 Safari/537.36 Edg/135.0.0.0" version="26.2.15">
  <diagram name="Page-1" id="0783ab3e-0a74-02c8-0abd-f7b4e66b4bec">
    <mxGraphModel dx="1880" dy="1098" grid="1" gridSize="10" guides="1" tooltips="1" connect="1" arrows="1" fold="1" page="1" pageScale="1" pageWidth="850" pageHeight="1100" background="none" math="0" shadow="0">
      <root>
        <mxCell id="0" />
        <mxCell id="1" parent="0" />
        <mxCell id="1c1d494c118603dd-1" value="Pool" style="swimlane;html=1;childLayout=stackLayout;startSize=20;rounded=0;shadow=0;comic=0;labelBackgroundColor=none;strokeWidth=1;fontFamily=Verdana;fontSize=12;align=center;" parent="1" vertex="1">
          <mxGeometry x="50" y="50" width="1070" height="1616.255" as="geometry" />
        </mxCell>
        <mxCell id="1c1d494c118603dd-2" value="User" style="swimlane;html=1;startSize=20;" parent="1c1d494c118603dd-1" vertex="1">
          <mxGeometry y="20" width="250" height="1596.255" as="geometry" />
        </mxCell>
        <mxCell id="ZgyF_BlXm0UfIE3mH04B-1" value="" style="ellipse;html=1;shape=startState;fillColor=#000000;strokeColor=#ff0000;" vertex="1" parent="1c1d494c118603dd-2">
          <mxGeometry x="70" y="40" width="30" height="30" as="geometry" />
        </mxCell>
        <mxCell id="ZgyF_BlXm0UfIE3mH04B-2" value="" style="edgeStyle=orthogonalEdgeStyle;html=1;verticalAlign=bottom;endArrow=open;endSize=8;strokeColor=#ff0000;rounded=0;" edge="1" source="ZgyF_BlXm0UfIE3mH04B-1" parent="1c1d494c118603dd-2">
          <mxGeometry relative="1" as="geometry">
            <mxPoint x="85" y="130" as="targetPoint" />
          </mxGeometry>
        </mxCell>
        <mxCell id="ZgyF_BlXm0UfIE3mH04B-3" value="Chọn tính năng quên mật khẩu" style="rounded=1;whiteSpace=wrap;html=1;" vertex="1" parent="1c1d494c118603dd-2">
          <mxGeometry x="25" y="130" width="120" height="60" as="geometry" />
        </mxCell>
        <mxCell id="ZgyF_BlXm0UfIE3mH04B-6" value="Nhập gmail của tài khoản" style="rounded=1;whiteSpace=wrap;html=1;" vertex="1" parent="1c1d494c118603dd-2">
          <mxGeometry x="25" y="250" width="120" height="60" as="geometry" />
        </mxCell>
        <mxCell id="ZgyF_BlXm0UfIE3mH04B-92" value="Nhập mã OTP" style="rounded=1;whiteSpace=wrap;html=1;" vertex="1" parent="1c1d494c118603dd-2">
          <mxGeometry x="50" y="810.0000000000002" width="120" height="60" as="geometry" />
        </mxCell>
        <mxCell id="ZgyF_BlXm0UfIE3mH04B-108" value="Điền vào mật khẩu mới và xác nhận MK" style="rounded=1;whiteSpace=wrap;html=1;" vertex="1" parent="1c1d494c118603dd-2">
          <mxGeometry x="50" y="1015" width="130" height="60" as="geometry" />
        </mxCell>
        <mxCell id="1c1d494c118603dd-3" value="Hệ thống&amp;nbsp;" style="swimlane;html=1;startSize=20;" parent="1c1d494c118603dd-1" vertex="1">
          <mxGeometry x="250" y="20" width="420" height="1596.255" as="geometry" />
        </mxCell>
        <mxCell id="ZgyF_BlXm0UfIE3mH04B-4" value="Hiển thị Form lấy lại mật khẩu" style="rounded=1;whiteSpace=wrap;html=1;" vertex="1" parent="1c1d494c118603dd-3">
          <mxGeometry x="65" y="130" width="120" height="60" as="geometry" />
        </mxCell>
        <mxCell id="ZgyF_BlXm0UfIE3mH04B-9" value="Kiểm tra tài khoản đã tồn tại trong CSDL" style="rounded=1;whiteSpace=wrap;html=1;" vertex="1" parent="1c1d494c118603dd-3">
          <mxGeometry x="70" y="250" width="125" height="60" as="geometry" />
        </mxCell>
        <mxCell id="ZgyF_BlXm0UfIE3mH04B-11" value="Condition" style="rhombus;whiteSpace=wrap;html=1;fontColor=#000000;fillColor=#ffffc0;strokeColor=#ff0000;" vertex="1" parent="1c1d494c118603dd-3">
          <mxGeometry x="92.5" y="340" width="80" height="40" as="geometry" />
        </mxCell>
        <mxCell id="ZgyF_BlXm0UfIE3mH04B-14" value="" style="endArrow=classic;html=1;rounded=0;exitX=0.5;exitY=1;exitDx=0;exitDy=0;entryX=0.5;entryY=0;entryDx=0;entryDy=0;" edge="1" parent="1c1d494c118603dd-3" source="ZgyF_BlXm0UfIE3mH04B-9" target="ZgyF_BlXm0UfIE3mH04B-11">
          <mxGeometry width="50" height="50" relative="1" as="geometry">
            <mxPoint x="110" y="200" as="sourcePoint" />
            <mxPoint x="160" y="150" as="targetPoint" />
          </mxGeometry>
        </mxCell>
        <mxCell id="ZgyF_BlXm0UfIE3mH04B-15" value="Hiển thị thông báo tài khoản chưa tồn tại" style="rounded=1;whiteSpace=wrap;html=1;" vertex="1" parent="1c1d494c118603dd-3">
          <mxGeometry x="230" y="330" width="120" height="60" as="geometry" />
        </mxCell>
        <mxCell id="ZgyF_BlXm0UfIE3mH04B-16" value="" style="endArrow=classic;html=1;rounded=0;exitX=0.5;exitY=0;exitDx=0;exitDy=0;entryX=1;entryY=0.5;entryDx=0;entryDy=0;" edge="1" parent="1c1d494c118603dd-3" source="ZgyF_BlXm0UfIE3mH04B-15" target="ZgyF_BlXm0UfIE3mH04B-4">
          <mxGeometry width="50" height="50" relative="1" as="geometry">
            <mxPoint x="10" y="320" as="sourcePoint" />
            <mxPoint x="60" y="270" as="targetPoint" />
            <Array as="points">
              <mxPoint x="290" y="160" />
            </Array>
          </mxGeometry>
        </mxCell>
        <mxCell id="ZgyF_BlXm0UfIE3mH04B-13" value="[Có]" style="edgeStyle=orthogonalEdgeStyle;html=1;align=left;verticalAlign=top;endArrow=open;endSize=8;strokeColor=#ff0000;rounded=0;entryX=0.487;entryY=0.045;entryDx=0;entryDy=0;entryPerimeter=0;" edge="1" source="ZgyF_BlXm0UfIE3mH04B-11" parent="1c1d494c118603dd-3" target="ZgyF_BlXm0UfIE3mH04B-45">
          <mxGeometry x="-1" y="14" relative="1" as="geometry">
            <mxPoint x="132.99500000000012" y="437.8549999999998" as="targetPoint" />
            <mxPoint x="-4" y="-10" as="offset" />
          </mxGeometry>
        </mxCell>
        <mxCell id="ZgyF_BlXm0UfIE3mH04B-12" value="[Chưa]" style="edgeStyle=orthogonalEdgeStyle;html=1;align=left;verticalAlign=bottom;endArrow=open;endSize=8;strokeColor=#ff0000;rounded=0;entryX=0;entryY=0.5;entryDx=0;entryDy=0;" edge="1" source="ZgyF_BlXm0UfIE3mH04B-11" parent="1c1d494c118603dd-3" target="ZgyF_BlXm0UfIE3mH04B-15">
          <mxGeometry x="-1" relative="1" as="geometry">
            <mxPoint x="210" y="330" as="targetPoint" />
            <mxPoint as="offset" />
          </mxGeometry>
        </mxCell>
        <mxCell id="ZgyF_BlXm0UfIE3mH04B-51" value="Gửi OTP cho Email Service" style="rounded=1;whiteSpace=wrap;html=1;" vertex="1" parent="1c1d494c118603dd-3">
          <mxGeometry x="71.25" y="620" width="127.5" height="60" as="geometry" />
        </mxCell>
        <mxCell id="ZgyF_BlXm0UfIE3mH04B-77" value="Thông báo OTP đã hết hạn" style="rounded=1;whiteSpace=wrap;html=1;" vertex="1" parent="1c1d494c118603dd-3">
          <mxGeometry x="180" y="1095" width="120" height="60" as="geometry" />
        </mxCell>
        <mxCell id="ZgyF_BlXm0UfIE3mH04B-45" value="Sinh mã OTP ngẫu nhiên" style="rounded=1;whiteSpace=wrap;html=1;" vertex="1" parent="1c1d494c118603dd-3">
          <mxGeometry x="70" y="440" width="130" height="60" as="geometry" />
        </mxCell>
        <mxCell id="ZgyF_BlXm0UfIE3mH04B-67" value="Lưu OTP cho tài khoản vào CSDL" style="rounded=1;whiteSpace=wrap;html=1;" vertex="1" parent="1c1d494c118603dd-3">
          <mxGeometry x="50" y="530" width="170" height="60" as="geometry" />
        </mxCell>
        <mxCell id="ZgyF_BlXm0UfIE3mH04B-47" value="" style="endArrow=classic;html=1;rounded=0;exitX=0.5;exitY=1;exitDx=0;exitDy=0;" edge="1" parent="1c1d494c118603dd-3" source="ZgyF_BlXm0UfIE3mH04B-45" target="ZgyF_BlXm0UfIE3mH04B-67">
          <mxGeometry width="50" height="50" relative="1" as="geometry">
            <mxPoint x="320" y="540" as="sourcePoint" />
            <mxPoint x="583" y="540" as="targetPoint" />
          </mxGeometry>
        </mxCell>
        <mxCell id="ZgyF_BlXm0UfIE3mH04B-87" value="Hiển thị thông báo đã gửi OTP tới gmail&amp;nbsp;" style="rounded=1;whiteSpace=wrap;html=1;" vertex="1" parent="1c1d494c118603dd-3">
          <mxGeometry x="60" y="720" width="150" height="60" as="geometry" />
        </mxCell>
        <mxCell id="ZgyF_BlXm0UfIE3mH04B-90" value="Hiển thị form nhập mã OTP" style="rounded=1;whiteSpace=wrap;html=1;" vertex="1" parent="1c1d494c118603dd-3">
          <mxGeometry x="60" y="810" width="150" height="60" as="geometry" />
        </mxCell>
        <mxCell id="ZgyF_BlXm0UfIE3mH04B-93" value="Kiểm tra tính hợp lệ của OTP" style="rounded=1;whiteSpace=wrap;html=1;" vertex="1" parent="1c1d494c118603dd-3">
          <mxGeometry x="130" y="920" width="180" height="60" as="geometry" />
        </mxCell>
        <mxCell id="ZgyF_BlXm0UfIE3mH04B-98" style="edgeStyle=orthogonalEdgeStyle;html=1;align=left;verticalAlign=top;endArrow=open;endSize=8;strokeColor=#ff0000;rounded=0;" edge="1" parent="1c1d494c118603dd-3" source="ZgyF_BlXm0UfIE3mH04B-95">
          <mxGeometry relative="1" as="geometry">
            <mxPoint x="130" y="1040" as="targetPoint" />
          </mxGeometry>
        </mxCell>
        <mxCell id="ZgyF_BlXm0UfIE3mH04B-95" value="" style="rhombus;whiteSpace=wrap;html=1;fontColor=#000000;fillColor=#ffffc0;strokeColor=#ff0000;" vertex="1" parent="1c1d494c118603dd-3">
          <mxGeometry x="190" y="1020" width="60" height="40" as="geometry" />
        </mxCell>
        <mxCell id="ZgyF_BlXm0UfIE3mH04B-96" value="[OTP sai]" style="edgeStyle=orthogonalEdgeStyle;html=1;align=left;verticalAlign=bottom;endArrow=open;endSize=8;strokeColor=#ff0000;rounded=0;" edge="1" source="ZgyF_BlXm0UfIE3mH04B-95" parent="1c1d494c118603dd-3">
          <mxGeometry x="-1" relative="1" as="geometry">
            <mxPoint x="300" y="1040" as="targetPoint" />
            <mxPoint as="offset" />
          </mxGeometry>
        </mxCell>
        <mxCell id="ZgyF_BlXm0UfIE3mH04B-97" value="[OTP hết hạn]" style="edgeStyle=orthogonalEdgeStyle;html=1;align=left;verticalAlign=top;endArrow=open;endSize=8;strokeColor=#ff0000;rounded=0;entryX=0.334;entryY=0;entryDx=0;entryDy=0;entryPerimeter=0;" edge="1" source="ZgyF_BlXm0UfIE3mH04B-95" parent="1c1d494c118603dd-3" target="ZgyF_BlXm0UfIE3mH04B-77">
          <mxGeometry x="-1" relative="1" as="geometry">
            <mxPoint x="145" y="1120" as="targetPoint" />
          </mxGeometry>
        </mxCell>
        <mxCell id="ZgyF_BlXm0UfIE3mH04B-99" value="Thông báo OTP không chính xác" style="rounded=1;whiteSpace=wrap;html=1;" vertex="1" parent="1c1d494c118603dd-3">
          <mxGeometry x="300" y="1010" width="100" height="60" as="geometry" />
        </mxCell>
        <mxCell id="ZgyF_BlXm0UfIE3mH04B-100" value="" style="ellipse;html=1;shape=endState;fillColor=#000000;strokeColor=#ff0000;" vertex="1" parent="1c1d494c118603dd-3">
          <mxGeometry x="335" y="1110" width="30" height="30" as="geometry" />
        </mxCell>
        <mxCell id="ZgyF_BlXm0UfIE3mH04B-101" value="" style="endArrow=classic;html=1;rounded=0;exitX=0.5;exitY=1;exitDx=0;exitDy=0;entryX=0.5;entryY=0;entryDx=0;entryDy=0;" edge="1" parent="1c1d494c118603dd-3" source="ZgyF_BlXm0UfIE3mH04B-99" target="ZgyF_BlXm0UfIE3mH04B-100">
          <mxGeometry width="50" height="50" relative="1" as="geometry">
            <mxPoint x="-80" y="990" as="sourcePoint" />
            <mxPoint x="-30" y="940" as="targetPoint" />
          </mxGeometry>
        </mxCell>
        <mxCell id="ZgyF_BlXm0UfIE3mH04B-103" value="" style="ellipse;html=1;shape=endState;fillColor=#000000;strokeColor=#ff0000;direction=south;" vertex="1" parent="1c1d494c118603dd-3">
          <mxGeometry x="100" y="1110" width="30" height="30" as="geometry" />
        </mxCell>
        <mxCell id="ZgyF_BlXm0UfIE3mH04B-102" value="" style="endArrow=classic;html=1;rounded=0;exitX=0;exitY=0.5;exitDx=0;exitDy=0;" edge="1" parent="1c1d494c118603dd-3" source="ZgyF_BlXm0UfIE3mH04B-77" target="ZgyF_BlXm0UfIE3mH04B-103">
          <mxGeometry width="50" height="50" relative="1" as="geometry">
            <mxPoint x="-80" y="1090" as="sourcePoint" />
            <mxPoint x="260" y="1150" as="targetPoint" />
          </mxGeometry>
        </mxCell>
        <mxCell id="ZgyF_BlXm0UfIE3mH04B-104" value="" style="endArrow=classic;html=1;rounded=0;exitX=0.5;exitY=1;exitDx=0;exitDy=0;entryX=0.5;entryY=0;entryDx=0;entryDy=0;" edge="1" parent="1c1d494c118603dd-3" source="ZgyF_BlXm0UfIE3mH04B-93" target="ZgyF_BlXm0UfIE3mH04B-95">
          <mxGeometry width="50" height="50" relative="1" as="geometry">
            <mxPoint x="-80" y="900" as="sourcePoint" />
            <mxPoint x="-30" y="850" as="targetPoint" />
          </mxGeometry>
        </mxCell>
        <mxCell id="ZgyF_BlXm0UfIE3mH04B-105" value="Hiển thị form nhập mật khẩu mới" style="rounded=1;whiteSpace=wrap;html=1;" vertex="1" parent="1c1d494c118603dd-3">
          <mxGeometry x="20" y="1015" width="110" height="60" as="geometry" />
        </mxCell>
        <mxCell id="ZgyF_BlXm0UfIE3mH04B-111" value="[OTP hợp lệ]" style="text;html=1;align=center;verticalAlign=middle;whiteSpace=wrap;rounded=0;" vertex="1" parent="1c1d494c118603dd-3">
          <mxGeometry x="138.75" y="1010" width="60" height="30" as="geometry" />
        </mxCell>
        <mxCell id="ZgyF_BlXm0UfIE3mH04B-116" value="Kiểm tra trùng khớp&amp;nbsp;" style="rounded=1;whiteSpace=wrap;html=1;" vertex="1" parent="1c1d494c118603dd-3">
          <mxGeometry x="190" y="1220" width="140" height="60" as="geometry" />
        </mxCell>
        <mxCell id="ZgyF_BlXm0UfIE3mH04B-117" value="" style="rhombus;whiteSpace=wrap;html=1;fontColor=#000000;fillColor=#ffffc0;strokeColor=#ff0000;" vertex="1" parent="1c1d494c118603dd-3">
          <mxGeometry x="220" y="1310" width="80" height="40" as="geometry" />
        </mxCell>
        <mxCell id="ZgyF_BlXm0UfIE3mH04B-118" value="" style="edgeStyle=orthogonalEdgeStyle;html=1;align=left;verticalAlign=bottom;endArrow=open;endSize=8;strokeColor=#ff0000;rounded=0;exitX=0;exitY=0.5;exitDx=0;exitDy=0;" edge="1" source="ZgyF_BlXm0UfIE3mH04B-117" parent="1c1d494c118603dd-3">
          <mxGeometry x="-1" relative="1" as="geometry">
            <mxPoint x="130" y="1330" as="targetPoint" />
          </mxGeometry>
        </mxCell>
        <mxCell id="ZgyF_BlXm0UfIE3mH04B-119" value="[Có]" style="edgeStyle=orthogonalEdgeStyle;html=1;align=left;verticalAlign=top;endArrow=open;endSize=8;strokeColor=#ff0000;rounded=0;entryX=0.868;entryY=0.518;entryDx=0;entryDy=0;entryPerimeter=0;" edge="1" parent="1c1d494c118603dd-3" target="ZgyF_BlXm0UfIE3mH04B-125">
          <mxGeometry x="-1" relative="1" as="geometry">
            <mxPoint x="260" y="1390" as="targetPoint" />
            <mxPoint x="260" y="1350" as="sourcePoint" />
          </mxGeometry>
        </mxCell>
        <mxCell id="ZgyF_BlXm0UfIE3mH04B-120" value="" style="endArrow=classic;html=1;rounded=0;exitX=0.5;exitY=1;exitDx=0;exitDy=0;entryX=0.5;entryY=0;entryDx=0;entryDy=0;" edge="1" parent="1c1d494c118603dd-3" source="ZgyF_BlXm0UfIE3mH04B-116" target="ZgyF_BlXm0UfIE3mH04B-117">
          <mxGeometry width="50" height="50" relative="1" as="geometry">
            <mxPoint x="130" y="1250" as="sourcePoint" />
            <mxPoint x="180" y="1200" as="targetPoint" />
          </mxGeometry>
        </mxCell>
        <mxCell id="ZgyF_BlXm0UfIE3mH04B-122" value="[Không]" style="text;html=1;align=center;verticalAlign=middle;whiteSpace=wrap;rounded=0;" vertex="1" parent="1c1d494c118603dd-3">
          <mxGeometry x="170" y="1300" width="50" height="30" as="geometry" />
        </mxCell>
        <mxCell id="ZgyF_BlXm0UfIE3mH04B-123" value="Thông báo yêu cầu nhập lại" style="rounded=1;whiteSpace=wrap;html=1;" vertex="1" parent="1c1d494c118603dd-3">
          <mxGeometry x="20" y="1300" width="110" height="60" as="geometry" />
        </mxCell>
        <mxCell id="ZgyF_BlXm0UfIE3mH04B-125" value="" style="html=1;points=[];perimeter=orthogonalPerimeter;fillColor=strokeColor;rotation=-90;" vertex="1" parent="1c1d494c118603dd-3">
          <mxGeometry x="253.13" y="1271.87" width="5" height="236.25" as="geometry" />
        </mxCell>
        <mxCell id="ZgyF_BlXm0UfIE3mH04B-126" value="Thông báo cập nhật mật khẩu thành công" style="rounded=1;whiteSpace=wrap;html=1;" vertex="1" parent="1c1d494c118603dd-3">
          <mxGeometry x="120" y="1402.5" width="120" height="60" as="geometry" />
        </mxCell>
        <mxCell id="ZgyF_BlXm0UfIE3mH04B-165" value="Cập nhật mật khẩu mới cho tài khoản trong CSDL" style="rounded=1;whiteSpace=wrap;html=1;" vertex="1" parent="1c1d494c118603dd-3">
          <mxGeometry x="275" y="1402.5" width="105" height="60" as="geometry" />
        </mxCell>
        <mxCell id="ZgyF_BlXm0UfIE3mH04B-166" value="" style="html=1;points=[];perimeter=orthogonalPerimeter;fillColor=strokeColor;rotation=-90;" vertex="1" parent="1c1d494c118603dd-3">
          <mxGeometry x="253.135" y="1360.005" width="5" height="236.25" as="geometry" />
        </mxCell>
        <mxCell id="ZgyF_BlXm0UfIE3mH04B-167" value="" style="endArrow=classic;html=1;rounded=0;exitX=-0.207;exitY=0.181;exitDx=0;exitDy=0;exitPerimeter=0;entryX=0.5;entryY=0;entryDx=0;entryDy=0;" edge="1" parent="1c1d494c118603dd-3" source="ZgyF_BlXm0UfIE3mH04B-125" target="ZgyF_BlXm0UfIE3mH04B-126">
          <mxGeometry width="50" height="50" relative="1" as="geometry">
            <mxPoint x="200" y="1450" as="sourcePoint" />
            <mxPoint x="250" y="1400" as="targetPoint" />
          </mxGeometry>
        </mxCell>
        <mxCell id="ZgyF_BlXm0UfIE3mH04B-168" value="" style="endArrow=classic;html=1;rounded=0;exitX=-0.113;exitY=0.81;exitDx=0;exitDy=0;exitPerimeter=0;" edge="1" parent="1c1d494c118603dd-3" source="ZgyF_BlXm0UfIE3mH04B-125" target="ZgyF_BlXm0UfIE3mH04B-165">
          <mxGeometry width="50" height="50" relative="1" as="geometry">
            <mxPoint x="320" y="1400" as="sourcePoint" />
            <mxPoint x="320" y="1400" as="targetPoint" />
          </mxGeometry>
        </mxCell>
        <mxCell id="ZgyF_BlXm0UfIE3mH04B-169" value="" style="endArrow=classic;html=1;rounded=0;exitX=0.5;exitY=1;exitDx=0;exitDy=0;entryX=0.95;entryY=0.181;entryDx=0;entryDy=0;entryPerimeter=0;" edge="1" parent="1c1d494c118603dd-3" source="ZgyF_BlXm0UfIE3mH04B-126" target="ZgyF_BlXm0UfIE3mH04B-166">
          <mxGeometry width="50" height="50" relative="1" as="geometry">
            <mxPoint x="190" y="1470" as="sourcePoint" />
            <mxPoint x="190" y="1479" as="targetPoint" />
          </mxGeometry>
        </mxCell>
        <mxCell id="ZgyF_BlXm0UfIE3mH04B-171" value="" style="endArrow=classic;html=1;rounded=0;exitX=0.525;exitY=1.019;exitDx=0;exitDy=0;exitPerimeter=0;" edge="1" parent="1c1d494c118603dd-3" source="ZgyF_BlXm0UfIE3mH04B-165">
          <mxGeometry width="50" height="50" relative="1" as="geometry">
            <mxPoint x="330" y="1470" as="sourcePoint" />
            <mxPoint x="330" y="1475" as="targetPoint" />
          </mxGeometry>
        </mxCell>
        <mxCell id="ZgyF_BlXm0UfIE3mH04B-173" value="" style="ellipse;html=1;shape=endState;fillColor=#000000;strokeColor=#ff0000;" vertex="1" parent="1c1d494c118603dd-3">
          <mxGeometry x="245" y="1520" width="30" height="30" as="geometry" />
        </mxCell>
        <mxCell id="1c1d494c118603dd-4" value="Email Service" style="swimlane;html=1;startSize=20;" parent="1c1d494c118603dd-1" vertex="1">
          <mxGeometry x="670" y="20" width="400" height="1596.255" as="geometry" />
        </mxCell>
        <mxCell id="ZgyF_BlXm0UfIE3mH04B-83" value="Tạo email có chứa mã OTP" style="rounded=1;whiteSpace=wrap;html=1;" vertex="1" parent="1c1d494c118603dd-4">
          <mxGeometry x="87.5" y="620" width="120" height="60" as="geometry" />
        </mxCell>
        <mxCell id="ZgyF_BlXm0UfIE3mH04B-85" value="Gửi email tới tài khoản gmail" style="rounded=1;whiteSpace=wrap;html=1;" vertex="1" parent="1c1d494c118603dd-4">
          <mxGeometry x="87.5" y="720" width="120" height="60" as="geometry" />
        </mxCell>
        <mxCell id="ZgyF_BlXm0UfIE3mH04B-86" value="" style="endArrow=classic;html=1;rounded=0;exitX=0.5;exitY=1;exitDx=0;exitDy=0;entryX=0.5;entryY=0;entryDx=0;entryDy=0;" edge="1" parent="1c1d494c118603dd-4" source="ZgyF_BlXm0UfIE3mH04B-83" target="ZgyF_BlXm0UfIE3mH04B-85">
          <mxGeometry width="50" height="50" relative="1" as="geometry">
            <mxPoint x="-120" y="610" as="sourcePoint" />
            <mxPoint x="-70" y="560" as="targetPoint" />
          </mxGeometry>
        </mxCell>
        <mxCell id="ZgyF_BlXm0UfIE3mH04B-5" value="" style="endArrow=classic;html=1;rounded=0;exitX=1;exitY=0.5;exitDx=0;exitDy=0;entryX=0;entryY=0.5;entryDx=0;entryDy=0;" edge="1" parent="1c1d494c118603dd-1" source="ZgyF_BlXm0UfIE3mH04B-3" target="ZgyF_BlXm0UfIE3mH04B-4">
          <mxGeometry width="50" height="50" relative="1" as="geometry">
            <mxPoint x="360" y="320" as="sourcePoint" />
            <mxPoint x="410" y="270" as="targetPoint" />
          </mxGeometry>
        </mxCell>
        <mxCell id="ZgyF_BlXm0UfIE3mH04B-7" value="" style="endArrow=classic;html=1;rounded=0;exitX=0.5;exitY=1;exitDx=0;exitDy=0;entryX=0.5;entryY=0;entryDx=0;entryDy=0;" edge="1" parent="1c1d494c118603dd-1" source="ZgyF_BlXm0UfIE3mH04B-4" target="ZgyF_BlXm0UfIE3mH04B-6">
          <mxGeometry width="50" height="50" relative="1" as="geometry">
            <mxPoint x="360" y="320" as="sourcePoint" />
            <mxPoint x="410" y="270" as="targetPoint" />
            <Array as="points">
              <mxPoint x="375" y="230" />
              <mxPoint x="85" y="230" />
            </Array>
          </mxGeometry>
        </mxCell>
        <mxCell id="ZgyF_BlXm0UfIE3mH04B-8" value="" style="endArrow=classic;html=1;rounded=0;exitX=1;exitY=0.5;exitDx=0;exitDy=0;entryX=0;entryY=0.5;entryDx=0;entryDy=0;" edge="1" parent="1c1d494c118603dd-1" source="ZgyF_BlXm0UfIE3mH04B-6" target="ZgyF_BlXm0UfIE3mH04B-9">
          <mxGeometry width="50" height="50" relative="1" as="geometry">
            <mxPoint x="340" y="290" as="sourcePoint" />
            <mxPoint x="300" y="270" as="targetPoint" />
          </mxGeometry>
        </mxCell>
        <mxCell id="ZgyF_BlXm0UfIE3mH04B-84" value="" style="endArrow=classic;html=1;rounded=0;exitX=1;exitY=0.5;exitDx=0;exitDy=0;entryX=0;entryY=0.5;entryDx=0;entryDy=0;" edge="1" parent="1c1d494c118603dd-1" source="ZgyF_BlXm0UfIE3mH04B-51" target="ZgyF_BlXm0UfIE3mH04B-83">
          <mxGeometry width="50" height="50" relative="1" as="geometry">
            <mxPoint x="550" y="630" as="sourcePoint" />
            <mxPoint x="600" y="580" as="targetPoint" />
          </mxGeometry>
        </mxCell>
        <mxCell id="ZgyF_BlXm0UfIE3mH04B-88" value="" style="endArrow=classic;html=1;rounded=0;exitX=0;exitY=0.5;exitDx=0;exitDy=0;entryX=1;entryY=0.5;entryDx=0;entryDy=0;" edge="1" parent="1c1d494c118603dd-1" source="ZgyF_BlXm0UfIE3mH04B-85" target="ZgyF_BlXm0UfIE3mH04B-87">
          <mxGeometry width="50" height="50" relative="1" as="geometry">
            <mxPoint x="430" y="740" as="sourcePoint" />
            <mxPoint x="480" y="690" as="targetPoint" />
          </mxGeometry>
        </mxCell>
        <mxCell id="ZgyF_BlXm0UfIE3mH04B-91" value="" style="endArrow=classic;html=1;rounded=0;exitX=0;exitY=0.5;exitDx=0;exitDy=0;" edge="1" parent="1c1d494c118603dd-1" source="ZgyF_BlXm0UfIE3mH04B-90" target="ZgyF_BlXm0UfIE3mH04B-92">
          <mxGeometry width="50" height="50" relative="1" as="geometry">
            <mxPoint x="320" y="950" as="sourcePoint" />
            <mxPoint x="160" y="860" as="targetPoint" />
          </mxGeometry>
        </mxCell>
        <mxCell id="ZgyF_BlXm0UfIE3mH04B-94" value="" style="endArrow=classic;html=1;rounded=0;exitX=0.5;exitY=1;exitDx=0;exitDy=0;entryX=0;entryY=0.5;entryDx=0;entryDy=0;" edge="1" parent="1c1d494c118603dd-1" source="ZgyF_BlXm0UfIE3mH04B-92" target="ZgyF_BlXm0UfIE3mH04B-93">
          <mxGeometry width="50" height="50" relative="1" as="geometry">
            <mxPoint x="270" y="980" as="sourcePoint" />
            <mxPoint x="320" y="930" as="targetPoint" />
            <Array as="points">
              <mxPoint x="110" y="970" />
            </Array>
          </mxGeometry>
        </mxCell>
        <mxCell id="ZgyF_BlXm0UfIE3mH04B-107" value="" style="endArrow=classic;html=1;rounded=0;exitX=0;exitY=0.5;exitDx=0;exitDy=0;" edge="1" parent="1c1d494c118603dd-1" source="ZgyF_BlXm0UfIE3mH04B-105" target="ZgyF_BlXm0UfIE3mH04B-108">
          <mxGeometry width="50" height="50" relative="1" as="geometry">
            <mxPoint x="170" y="1110" as="sourcePoint" />
            <mxPoint x="180" y="1065" as="targetPoint" />
          </mxGeometry>
        </mxCell>
        <mxCell id="ZgyF_BlXm0UfIE3mH04B-109" value="" style="endArrow=classic;html=1;rounded=0;exitX=0.5;exitY=1;exitDx=0;exitDy=0;entryX=0;entryY=0.5;entryDx=0;entryDy=0;" edge="1" parent="1c1d494c118603dd-1" source="ZgyF_BlXm0UfIE3mH04B-108" target="ZgyF_BlXm0UfIE3mH04B-116">
          <mxGeometry width="50" height="50" relative="1" as="geometry">
            <mxPoint x="170" y="1200" as="sourcePoint" />
            <mxPoint x="290" y="1270.0000000000002" as="targetPoint" />
            <Array as="points">
              <mxPoint x="115" y="1270" />
            </Array>
          </mxGeometry>
        </mxCell>
        <mxCell id="ZgyF_BlXm0UfIE3mH04B-124" value="" style="endArrow=classic;html=1;rounded=0;exitX=0;exitY=0.5;exitDx=0;exitDy=0;entryX=0.353;entryY=0.991;entryDx=0;entryDy=0;entryPerimeter=0;" edge="1" parent="1c1d494c118603dd-1" source="ZgyF_BlXm0UfIE3mH04B-123" target="ZgyF_BlXm0UfIE3mH04B-108">
          <mxGeometry width="50" height="50" relative="1" as="geometry">
            <mxPoint x="380" y="1300" as="sourcePoint" />
            <mxPoint x="97" y="1100" as="targetPoint" />
            <Array as="points">
              <mxPoint x="97" y="1350" />
            </Array>
          </mxGeometry>
        </mxCell>
        <mxCell id="ZgyF_BlXm0UfIE3mH04B-82" value="" style="endArrow=classic;html=1;rounded=0;exitX=0.5;exitY=1;exitDx=0;exitDy=0;" edge="1" parent="1" source="ZgyF_BlXm0UfIE3mH04B-67">
          <mxGeometry width="50" height="50" relative="1" as="geometry">
            <mxPoint x="510" y="590" as="sourcePoint" />
            <mxPoint x="435" y="690" as="targetPoint" />
          </mxGeometry>
        </mxCell>
        <mxCell id="ZgyF_BlXm0UfIE3mH04B-89" value="" style="endArrow=classic;html=1;rounded=0;exitX=0.5;exitY=1;exitDx=0;exitDy=0;" edge="1" parent="1" source="ZgyF_BlXm0UfIE3mH04B-87">
          <mxGeometry width="50" height="50" relative="1" as="geometry">
            <mxPoint x="360" y="920" as="sourcePoint" />
            <mxPoint x="435" y="880" as="targetPoint" />
          </mxGeometry>
        </mxCell>
        <mxCell id="ZgyF_BlXm0UfIE3mH04B-172" value="" style="endArrow=classic;html=1;rounded=0;exitX=0.017;exitY=0.523;exitDx=0;exitDy=0;exitPerimeter=0;" edge="1" parent="1" source="ZgyF_BlXm0UfIE3mH04B-166">
          <mxGeometry width="50" height="50" relative="1" as="geometry">
            <mxPoint x="490" y="1570" as="sourcePoint" />
            <mxPoint x="561" y="1590" as="targetPoint" />
          </mxGeometry>
        </mxCell>
      </root>
    </mxGraphModel>
  </diagram>
</mxfile>
